<svg width="675" height="675" viewBox="0 0 675 675" fill="none" xmlns="http://www.w3.org/2000/svg">
<path d="M337.2 4C153.175 4 4 153.175 4 337.2C4 521.225 153.175 670.4 337.2 670.4C521.225 670.4 670.4 521.225 670.4 337.2C670.4 153.175 521.225 4 337.2 4ZM337.2 643.75C168.175 643.75 30.65 506.25 30.65 337.2C30.65 168.15 168.15 30.65 337.2 30.65C506.25 30.65 643.75 168.15 643.75 337.2C643.75 506.225 506.25 643.75 337.2 643.75Z" fill="#04498C" stroke="#04498C" stroke-width="8"/>
<path d="M336.076 162.525C268.426 162.525 230.651 204.325 230.176 270.575H259.576C258.651 222.525 283.826 187.275 334.701 187.275C371.076 187.275 401.401 212.925 401.401 250.25C401.401 274.5 388.326 294.1 371.076 310.425C335.626 343.325 325.701 358.8 323.901 403.875H353.676C355.426 363 354.526 363.825 390.201 328.15C414.001 305.75 430.776 283.35 430.776 248.825C430.776 194.725 387.851 162.525 336.101 162.525H336.076Z" fill="#04498C" stroke="#04498C" stroke-width="8"/>
<path d="M337.201 457.175C322.501 457.175 310.551 469.1 310.551 483.825C310.551 498.55 322.501 510.475 337.201 510.475C351.901 510.475 363.851 498.55 363.851 483.825C363.851 469.125 351.926 457.175 337.201 457.175Z" fill="#04498C" stroke="#04498C" stroke-width="8"/>
</svg>
