<svg width="77" height="90" viewBox="0 0 77 90" fill="none" xmlns="http://www.w3.org/2000/svg">
<path d="M75.4607 8.67139C74.2199 7.21229 72.4104 6.37578 70.4962 6.37578H64.2135V4.41051C64.2135 1.97861 62.2347 0 59.803 0H17.1974C14.7653 0 12.787 1.97861 12.787 4.41034V6.3756H6.50362C4.58946 6.3756 2.7798 7.21229 1.53918 8.67122C0.311193 10.115 -0.219551 12.0115 0.0834052 13.874C1.7343 24.0252 8.12272 32.9932 17.1895 37.9124C18.0179 39.9041 18.9561 41.7907 20.0009 43.5484C23.3381 49.1641 27.487 53.0451 32.0536 54.922C32.5164 59.6014 29.4027 64.0344 24.7135 65.0908C24.7035 65.0931 24.6964 65.0966 24.6866 65.0988C23.7714 65.3175 23.0902 66.1387 23.0902 67.1208V76.6684H19.2288C15.7862 76.6684 12.9855 79.4691 12.9855 82.9118V87.8395C12.9855 88.989 13.9172 89.9207 15.0667 89.9207H62.1323C63.2818 89.9207 64.2135 88.989 64.2135 87.8395V82.9118C64.2135 79.4691 61.4128 76.6684 57.9702 76.6684H54.1085V67.121C54.1085 66.137 53.4248 65.3145 52.5071 65.0978C52.4985 65.0957 52.4903 65.0929 52.4816 65.0908C47.7569 64.0273 44.6375 59.5497 45.1489 54.8352C49.6358 52.9279 53.7119 49.0815 57 43.5487C58.0448 41.7909 58.9828 39.9041 59.8114 37.912C68.8776 32.9927 75.2657 24.0249 76.9166 13.874C77.2196 12.0115 76.6888 10.1152 75.4607 8.67139ZM4.19167 13.2057C4.08348 12.5406 4.26736 11.8878 4.70959 11.3676C5.15832 10.84 5.812 10.5376 6.50344 10.5376H12.7868V14.3666C12.7868 20.3706 13.5531 26.1863 15.0054 31.5048C9.29819 26.9949 5.36872 20.4435 4.19167 13.2057ZM57.9702 80.831C59.1177 80.831 60.0513 81.7646 60.0513 82.9121V85.7587H17.1477V82.9121C17.1477 81.7646 18.0813 80.831 19.2288 80.831H57.9702ZM49.9461 69.2022V76.6686H27.2529V69.2022H49.9461ZM32.7108 65.04C33.2252 64.4738 33.6956 63.86 34.1162 63.203C35.5031 61.0359 36.2311 58.574 36.2637 56.0595C37.003 56.1602 37.749 56.2141 38.5014 56.2141C39.32 56.2141 40.131 56.1512 40.9342 56.0321C40.9816 59.411 42.2967 62.6093 44.508 65.0398L32.7108 65.04ZM60.051 14.3668C60.051 24.6197 57.6965 34.2282 53.4216 41.4219C49.3485 48.2766 44.0495 52.0517 38.5011 52.0517C32.9518 52.0517 27.6524 48.2768 23.5788 41.4223C19.3036 34.2284 16.9492 24.6199 16.9492 14.3671V4.41034C16.9492 4.27335 17.0605 4.16218 17.1972 4.16218H59.8027C59.9396 4.16218 60.051 4.27352 60.051 4.41034V14.3668ZM72.8083 13.2057C71.6313 20.4429 67.7022 26.9942 61.9952 31.5044C63.4473 26.1859 64.2135 20.3706 64.2135 14.3668V10.5378H70.4962C71.1878 10.5378 71.8415 10.8404 72.2901 11.3678C72.7323 11.8878 72.9163 12.5406 72.8083 13.2057Z" fill="#929292"/>
</svg>
