<svg width="97" height="116" viewBox="0 0 97 116" fill="none" xmlns="http://www.w3.org/2000/svg">
<g clip-path="url(#clip0_2050_769)">
<path d="M25.8608 49.6145C16.0723 54.5061 2.79517 75.4699 2.79517 100.627C2.79517 117.398 93.6385 117.398 93.6385 100.627C93.6385 75.4699 79.6626 54.5061 68.4819 49.6145" stroke="#04498C" stroke-width="4"/>
<path d="M46.8248 57.3012C61.8762 57.3012 74.0778 45.0996 74.0778 30.0482C74.0778 14.9968 61.8762 2.79517 46.8248 2.79517C31.7734 2.79517 19.5718 14.9968 19.5718 30.0482C19.5718 45.0996 31.7734 57.3012 46.8248 57.3012Z" stroke="#04498C" stroke-width="4"/>
<rect x="64" y="57" width="35" height="35" rx="17.5" fill="white"/>
<path d="M81.4998 86.9997C88.4033 86.9997 93.9997 81.4033 93.9997 74.4998C93.9997 67.5962 88.4033 61.9998 81.4998 61.9998C74.5962 61.9998 68.9998 67.5962 68.9998 74.4998C68.9998 81.4033 74.5962 86.9997 81.4998 86.9997Z" fill="white" stroke="#04498C" stroke-width="4"/>
<path d="M77.125 75.1245L79.625 77.6245L85.875 71.3745" fill="white"/>
<path d="M77.125 75.1245L79.625 77.6245L85.875 71.3745" stroke="#04498C" stroke-width="4" stroke-linecap="round" stroke-linejoin="round"/>
</g>
<defs>
<clipPath id="clip0_2050_769">
<rect width="96.4337" height="116" fill="white"/>
</clipPath>
</defs>
</svg>
