<svg width="1097" height="225" viewBox="0 0 1097 225" fill="none" xmlns="http://www.w3.org/2000/svg">
<path d="M109.417 221.891C169.296 221.891 217.835 172.872 217.835 112.417C217.835 51.9625 169.296 2.94516 109.417 2.94516C49.5387 2.94516 1 51.9625 1 112.417C1 172.872 49.5387 221.891 109.417 221.891Z" fill="white"/>
<path d="M1008.19 87.7114L1027.15 85.2354L1052.93 150.01L1082.26 85.2354H1096.77L1055.29 176.757C1048.43 191.346 1036.19 210.621 1014.07 210.621H1010.79V197.114C1032.94 198.549 1042.01 182.045 1042.01 175.405C1042.01 170.382 1039.44 164.91 1039.44 164.91L1008.19 87.7114ZM290.277 58.4621V166.021C304.601 166.021 318.121 164.966 327.336 160.829C347.624 151.741 357.782 132.635 357.782 112.262C357.782 91.8621 347.624 72.7567 327.336 63.6674C318.121 59.5314 304.601 58.4621 290.277 58.4621ZM305.43 48.9794C325.802 48.9794 345.345 53.8607 359.062 64.5674C373.806 76.0901 381.966 94.0847 381.966 112.163C381.966 130.327 374.229 148.391 359.357 159.915C345.668 170.523 325.704 175.321 305.43 175.321H268.288V48.9794H305.43ZM400.764 87.7541L420.446 85.1794V175.321H400.764V87.7541ZM395.881 58.3501C395.881 52.0327 402.016 46.9527 409.838 46.9527C417.21 46.9527 423.556 52.0327 423.556 58.3501C423.556 65.0461 417.168 69.7314 409.838 69.7314C402.016 69.7314 395.881 64.6527 395.881 58.3501ZM623.212 131.819C623.212 104.37 637.07 85.3621 670.541 85.3621C700.593 85.3621 718.545 103.539 718.545 131.635C718.545 159.886 703.069 177.361 670.992 177.361C640.264 177.361 623.212 158.606 623.212 131.819ZM671.216 168.061C695.12 168.061 697.076 146.225 697.076 131.819C697.076 116.371 693.361 94.6474 670.766 94.6474C645.976 94.6474 644.666 116.286 644.666 131.819C644.666 145.958 648.818 168.061 671.216 168.061ZM726.044 89.9767L745.713 87.3874L777.677 153.302L807.842 87.3874H822.573L780.436 177.361H768.448L726.044 89.9767ZM910.421 173.689C910.421 173.689 899.798 177.361 881.55 177.361C848.024 177.361 828.438 159.999 828.438 128.681C828.438 101.739 841.002 85.3621 874.433 85.3621C896.112 85.3621 913.094 98.1514 913.094 120.661V124.475H848.108C848.108 133.802 849.586 146.029 857.381 154.554C864.85 162.757 878.512 168.061 893.354 168.061C900.629 168.061 910.421 165.529 910.421 165.529V173.689ZM891.188 116.09C891.188 105.059 883.817 94.6474 871.534 94.6474C853.596 94.6474 849.445 109.097 848.474 116.09H891.188ZM607.976 102.33C607.976 102.33 593.132 94.6621 580.301 94.6621C556.397 94.6621 551.529 112.403 551.529 122.406C551.529 133.718 552.105 144.861 559.633 153.513C566.892 161.871 581.961 168.061 596.326 168.061C602.305 168.061 609.846 166.767 609.846 166.767V174.11C609.846 174.11 599.66 177.361 584.761 177.361C544.902 177.361 530.088 157.129 530.088 128.681C530.088 105.143 542.132 85.3621 575.193 85.3621C595.102 85.3621 607.976 88.7247 607.976 88.7247V102.33ZM475.71 168.09C483.308 167.513 496.504 165.866 496.504 153.415C496.504 149.194 493.677 145.818 488.85 143.059C482.238 139.289 474.317 136.349 471.068 135.026C458.152 129.778 444.209 123.518 444.209 110.589C444.209 95.6887 455.156 85.3621 481.745 85.3621C493.577 85.3621 507.717 88.7247 507.717 88.7247V102.33C507.717 102.33 492.481 94.6474 479.522 94.6474C470.11 94.6474 462.33 97.5034 462.33 105.41C462.33 109.533 465.144 112.642 469.956 115.217C476.666 118.833 484.489 121.478 487.753 122.786C500.809 127.963 514.625 134.717 514.625 149.911C514.625 169.229 496.757 177.361 473.741 177.361C455.126 177.361 443.674 173.873 443.674 173.873V166.527C443.674 166.527 463.033 169.059 475.71 168.09ZM995.188 88.7941L997.002 102.751C997.002 102.751 984.861 96.8287 970.356 97.6447C961.76 98.1514 956.216 101.177 951.418 104.946V175.785H931.75V88.2047L951.418 85.6154V94.1701C955.302 91.6234 961.829 87.2901 971.002 86.6567C982.117 85.8967 993.176 88.3874 995.188 88.7941Z" fill="#004B8D"/>
<path d="M8.30337 112.16C8.30337 169.9 54.8727 216.708 112.303 216.708C169.747 216.708 216.303 169.9 216.303 112.16C216.303 54.4201 169.747 7.6254 112.303 7.6254C54.8727 7.6254 8.30337 54.4201 8.30337 112.16ZM0.720703 112.16C0.720703 50.2134 50.6794 5.43499e-05 112.303 5.43499e-05C173.941 5.43499e-05 223.886 50.2134 223.886 112.16C223.886 174.107 173.941 224.32 112.303 224.32C50.6794 224.32 0.720703 174.107 0.720703 112.16ZM14.1847 112.244C14.142 59.0494 58.8967 13.4641 112.261 13.4361C165.667 13.4214 210.465 59.0201 210.422 112.244C210.394 165.411 165.611 210.897 112.261 210.884C58.9527 210.855 14.226 165.384 14.1847 112.244ZM45.1087 96.2761C40.8874 101.523 36.8074 106.912 32.9527 112.427C54.8727 142.929 82.1247 169.913 112.81 191.595C143.382 169.913 170.563 142.915 192.329 112.384C188.558 106.912 184.591 101.58 180.454 96.3747C160.166 121.671 137.318 144.856 112.937 166.199C88.4834 144.8 65.5514 121.559 45.1087 96.2761ZM93.0847 47.6241C99.838 53.1961 106.437 58.9641 112.937 64.8587C119.394 58.9921 125.965 53.2521 132.703 47.6947C126.287 42.2774 119.703 37.1294 112.866 32.2894C106.042 37.1147 99.4714 42.2494 93.0847 47.6241ZM76.1447 62.7201C70.5314 68.1801 65.086 73.7934 59.8114 79.5614C76.99 98.2601 94.7594 116.409 112.881 134.192C131.015 116.423 148.785 98.2881 165.921 79.5481C160.659 73.8347 155.229 68.2774 149.629 62.8894C137.247 74.5667 125.05 86.4134 112.95 98.3721C100.809 86.3561 88.5687 74.4401 76.1447 62.7201Z" fill="#BA8C60"/>
</svg>
