<svg width="800" height="688" viewBox="0 0 800 688" fill="none" xmlns="http://www.w3.org/2000/svg">
<path d="M416 0C380.812 0 352 28.8125 352 64V112H44.5C20.3125 112 0 131.75 0 156V548C0 572.25 20.3125 592 44.5 592H112C112 644.812 155.188 688 208 688C260.812 688 304 644.812 304 592H528C528 644.812 571.188 688 624 688C676.812 688 720 644.812 720 592H755.5C779.688 592 800 572.25 800 548V436C800 418.375 793.5 402.5 787.5 390.5C781.75 379.062 776.562 371.75 776 371L775.5 370L631.5 147.5C631.062 146.813 630.562 146.125 630 145.5C623.75 138.063 618.062 130.313 609.5 123.5C600.938 116.688 589.125 112 575.5 112H480V64C480 28.8125 451.125 0 416 0ZM416 32C433.875 32 448 46.125 448 64V112H384V64C384 46.125 398.125 32 416 32ZM44.5 144H575.5C582.688 144 585.25 145.625 589.5 149C593.75 152.375 598.812 158.5 605.5 166.5L611.5 176H512C511.5 176 511 176 510.5 176C510 176 509.5 176 509 176C501.375 177.438 495.875 184.188 496 192V368C496 376.812 503.188 384 512 384H738.5C740.938 384.062 743.312 383.5 745.5 382.5L749 388C749.125 388.312 749.312 388.688 749.5 389C749.5 389 754.188 395.375 759 405C763.812 414.625 768 427.062 768 436V548C768 554.625 762.5 560 755.5 560H714.5C701.312 522.75 665.688 496 624 496C582.312 496 546.688 522.75 533.5 560H298.5C285.312 522.75 249.688 496 208 496C166.312 496 130.688 522.75 117.5 560H44.5C37.5 560 32 554.625 32 548V156C32 149.375 37.5 144 44.5 144ZM528 208H632.5L725.5 352H528V208ZM224 240V304H160V336H224V400H256V336H320V304H256V240H224ZM208 528C243.562 528 272 556.438 272 592C272 627.562 243.562 656 208 656C172.438 656 144 627.562 144 592C144 556.438 172.438 528 208 528ZM624 528C659.562 528 688 556.438 688 592C688 627.562 659.562 656 624 656C588.438 656 560 627.562 560 592C560 556.438 588.438 528 624 528Z" fill="#04498C"/>
</svg>
