<svg width="734" height="734" viewBox="0 0 734 734" fill="none" xmlns="http://www.w3.org/2000/svg">
<path d="M633.9 455.633L733.333 418.8L732.933 311.867L633.067 275.7C629.002 263.72 624.136 252.026 618.5 240.7L662.8 144.267L586.9 68.9333L490.7 113.967C479.353 108.334 467.638 103.479 455.633 99.4333L418.8 0L311.867 0.399999L275.7 100.267C263.721 104.334 252.028 109.2 240.7 114.833L144.267 70.5333L68.9333 146.4L113.967 242.667C108.333 254.012 103.477 265.728 99.4333 277.733L0 314.533L0.399999 421.467L100.267 457.633C104.332 469.614 109.198 481.307 114.833 492.633L70.5333 589.067L146.4 664.4L242.633 619.367C253.979 625 265.695 629.856 277.7 633.9L314.533 733.333L421.467 732.933L457.633 633.067C469.613 629 481.306 624.133 492.633 618.5L589.067 662.8L664.4 586.933L619.367 490.7C625 479.354 629.856 467.638 633.9 455.633ZM624.333 579.967L581.833 622.8L492.033 581.533L477.733 588.7C467.716 593.654 457.382 597.941 446.8 601.533L431.733 606.733L398.067 699.7L337.733 699.933L303.4 607.3L288.2 602.267C277.633 598.692 267.32 594.405 257.333 589.433L243 582.433L153.4 624.333L110.533 581.833L151.833 492L144.633 477.667C139.665 467.674 135.367 457.363 131.767 446.8L126.6 431.733L33.6 398.067L33.4333 337.733L126 303.4L131.067 288.2C134.635 277.624 138.911 267.301 143.867 257.3L150.933 242.967L109 153.367L151.5 110.533L241.3 151.8L255.6 144.633C265.617 139.679 275.951 135.392 286.533 131.8L301.6 126.6L335.267 33.6333L395.6 33.4L429.933 126.033L445.133 131.067C455.691 134.638 465.993 138.926 475.967 143.9L490.3 150.933L580 109L622.833 151.5L581.533 241.333L588.733 255.667C593.702 265.659 598 275.971 601.6 286.533L606.767 301.6L699.767 335.267L699.933 395.6L607.367 429.933L602.3 445.133C598.732 455.709 594.455 466.032 589.5 476.033L582.433 490.367L624.333 579.967ZM366.667 206.667C335.022 206.667 304.087 216.05 277.775 233.632C251.464 251.213 230.956 276.201 218.846 305.437C206.736 334.673 203.567 366.844 209.741 397.881C215.915 428.918 231.153 457.427 253.53 479.804C275.906 502.18 304.415 517.419 335.452 523.592C366.489 529.766 398.66 526.597 427.896 514.487C457.132 502.377 482.121 481.87 499.702 455.558C517.283 429.246 526.667 398.312 526.667 366.667C526.667 324.232 509.81 283.535 479.804 253.53C449.798 223.524 409.101 206.667 366.667 206.667ZM366.667 493.333C341.614 493.333 317.125 485.904 296.294 471.986C275.464 458.068 259.229 438.285 249.642 415.14C240.055 391.995 237.546 366.526 242.434 341.955C247.321 317.384 259.385 294.814 277.1 277.1C294.814 259.385 317.384 247.321 341.955 242.434C366.526 237.546 391.995 240.055 415.14 249.642C438.285 259.229 458.068 275.464 471.986 296.294C485.904 317.125 493.333 341.614 493.333 366.667C493.298 400.25 479.941 432.448 456.195 456.195C432.448 479.941 400.25 493.298 366.667 493.333Z" fill="#04498C" stroke="#04498C" stroke-width="0.008"/>
</svg>
